<?xml version="1.0" encoding="UTF-8"?>
<!DOCTYPE svg PUBLIC "-//W3C//DTD SVG 1.1//EN" "http://www.w3.org/Graphics/SVG/1.1/DTD/svg11.dtd">
<svg width="512pt" height="511pt" viewBox="0 0 512 511" version="1.1" xmlns="http://www.w3.org/2000/svg">
	<g id="#040505ff">
		<path fill="#040505" opacity="1.00" d=" M 83.80 0.00 L 427.38 0.00 C 441.06 1.02 454.67 4.40 466.67 11.20 C 485.40 21.51 500.04 38.95 506.95 59.19 C 509.92 67.18 510.93 75.67 512.00 84.07 L 512.00 426.30 C 510.92 441.52 506.89 456.69 498.69 469.67 C 484.45 493.13 458.59 508.83 431.27 511.00 L 79.80 511.00 C 58.35 508.81 37.69 498.83 23.18 482.79 C 13.08 471.80 5.93 458.17 2.49 443.65 C 1.23 438.28 0.71 432.77 0.00 427.30 L 0.00 84.61 C 0.58 79.73 1.02 74.83 2.01 70.01 C 6.85 46.09 22.26 24.58 43.35 12.30 C 55.59 4.93 69.65 1.24 83.80 0.00 M 72.68 7.93 C 45.19 12.88 21.13 33.15 11.64 59.43 C 7.89 69.13 6.40 79.59 6.55 89.95 C 6.56 198.31 6.55 306.66 6.56 415.01 C 6.58 421.33 6.36 427.68 7.21 433.97 C 8.95 448.32 14.75 462.14 23.63 473.54 C 36.29 489.93 55.48 501.15 76.00 504.03 C 83.60 505.19 91.32 504.70 98.99 504.81 C 207.32 504.81 315.66 504.81 423.99 504.81 C 444.04 505.10 464.00 497.31 478.78 483.81 C 496.04 468.35 505.99 445.18 505.39 422.01 C 505.38 314.66 505.39 207.31 505.39 99.96 C 505.30 92.26 505.73 84.52 504.66 76.87 C 501.95 55.57 490.19 35.66 473.00 22.83 C 459.03 12.25 441.54 6.43 424.00 6.56 C 312.34 6.55 200.67 6.56 89.01 6.55 C 83.53 6.52 78.06 6.95 72.68 7.93 Z" />
		<path fill="#040505" opacity="1.00" d=" M 346.52 122.41 C 352.49 117.90 360.46 119.83 366.89 122.19 C 371.73 123.84 375.75 127.06 380.09 129.64 C 389.36 129.41 398.74 128.79 407.95 130.27 C 430.22 133.47 451.58 141.75 470.79 153.36 C 476.17 156.19 480.30 161.65 480.35 167.89 C 480.42 176.94 480.39 186.00 480.36 195.05 C 480.31 201.82 475.67 207.80 469.82 210.81 C 456.78 217.98 441.56 219.05 427.04 220.30 C 418.65 220.57 410.25 220.74 401.87 220.38 C 393.08 235.97 383.36 251.11 371.58 264.63 C 370.34 265.53 371.91 266.71 372.40 267.51 C 383.88 280.90 390.61 298.32 390.89 315.97 C 391.35 332.77 386.11 349.66 376.24 363.25 C 365.66 377.97 349.68 388.69 332.07 392.97 C 315.98 396.94 298.62 395.43 283.41 388.86 C 260.81 379.36 243.83 358.37 238.48 334.53 C 222.12 337.26 205.40 336.58 188.90 335.69 C 185.07 351.79 176.02 366.65 163.25 377.21 C 151.61 386.94 137.05 393.23 121.93 394.71 C 103.69 396.73 84.81 391.79 69.79 381.25 C 53.89 370.18 42.47 352.90 38.49 333.93 C 35.25 318.93 36.74 303.03 42.42 288.80 C 43.47 287.00 41.73 285.40 41.07 283.82 C 35.89 274.68 31.98 264.63 31.33 254.06 C 30.08 235.99 35.94 218.15 44.73 202.56 C 53.09 187.94 64.53 174.98 78.41 165.39 C 91.31 156.41 106.46 150.64 122.11 149.05 C 133.44 147.83 144.81 148.99 156.11 149.81 C 171.42 151.80 186.70 154.07 201.84 157.15 C 214.66 159.48 227.34 162.56 240.18 164.81 C 255.64 167.84 271.15 171.71 287.00 171.58 C 292.23 170.26 296.78 167.15 301.42 164.52 C 315.57 156.47 328.88 147.04 341.66 136.98 C 341.35 131.79 341.92 125.71 346.52 122.41 M 356.24 134.14 C 356.90 138.56 357.80 143.03 360.06 146.95 C 361.46 149.86 363.92 152.55 363.75 155.98 C 363.98 159.59 360.61 163.10 356.96 162.80 C 350.84 163.30 348.68 156.34 346.11 152.11 C 335.35 160.18 324.36 167.99 312.75 174.80 C 306.28 178.76 299.67 182.61 292.53 185.22 C 287.23 187.27 281.51 186.10 276.05 185.67 C 265.61 184.85 255.31 182.85 245.08 180.67 C 211.83 174.37 178.82 166.15 144.99 163.57 C 133.90 163.33 122.56 162.53 111.79 165.73 C 80.62 174.25 56.66 201.46 48.08 232.07 C 44.17 245.31 44.96 259.94 51.37 272.28 C 59.31 262.15 69.20 253.39 80.95 247.95 C 98.53 239.46 119.37 238.19 137.87 244.39 C 154.93 249.88 169.84 261.64 179.19 276.93 C 187.46 290.11 191.45 305.80 190.87 321.32 C 206.14 321.70 221.53 322.53 236.70 320.18 C 236.86 313.04 237.43 305.86 239.22 298.93 C 243.19 282.77 252.56 268.00 265.56 257.61 C 276.81 248.53 290.64 242.62 305.03 241.01 C 324.42 238.66 344.47 244.34 360.13 255.92 C 370.05 244.12 378.90 231.43 386.45 217.98 C 379.56 215.66 372.69 212.66 367.32 207.64 C 365.15 205.61 363.83 202.17 365.57 199.46 C 367.02 195.70 371.67 194.23 375.22 195.84 C 378.26 197.35 380.82 199.65 383.84 201.21 C 390.03 204.43 397.08 205.49 403.99 205.69 C 421.05 206.15 438.44 206.00 455.01 201.37 C 458.92 200.35 462.57 198.48 465.63 195.83 C 465.63 186.33 465.70 176.83 465.60 167.34 C 442.66 153.15 416.18 143.51 388.96 143.76 C 385.44 143.64 383.44 147.66 379.94 147.58 C 376.85 147.72 374.82 145.04 372.79 143.13 C 368.38 138.47 362.39 135.69 356.24 134.14 M 104.56 264.84 C 88.55 267.62 74.09 278.11 66.59 292.55 C 60.34 304.22 58.62 318.25 61.98 331.06 C 65.23 344.10 73.56 355.81 84.91 363.02 C 96.88 370.81 112.06 373.53 125.96 370.17 C 140.09 366.97 152.70 357.70 159.99 345.19 C 166.37 334.38 168.93 321.28 166.72 308.90 C 164.14 292.85 153.84 278.24 139.49 270.58 C 128.96 264.68 116.42 262.84 104.56 264.84 M 304.53 264.84 C 288.48 267.62 274.01 278.15 266.51 292.62 C 260.14 304.56 258.53 318.94 262.17 331.98 C 265.40 343.95 272.89 354.75 283.10 361.83 C 294.56 369.94 309.30 373.30 323.13 370.75 C 336.25 368.48 348.38 361.07 356.42 350.45 C 365.94 338.02 369.72 321.32 366.12 306.04 C 362.82 290.84 352.55 277.31 338.71 270.18 C 328.34 264.58 316.10 262.89 304.53 264.84 Z" />
		<path fill="#040505" opacity="1.00" d=" M 393.36 156.62 C 397.55 156.06 401.96 155.86 406.10 156.87 C 412.11 159.02 411.66 168.73 405.57 170.40 C 401.31 170.88 396.93 171.01 392.70 170.29 C 386.54 168.07 386.93 158.13 393.36 156.62 Z" />
		<path fill="#040505" opacity="1.00" d=" M 100.47 275.89 C 107.92 271.08 117.82 271.89 125.64 275.40 C 127.64 276.13 126.63 278.43 125.67 279.60 C 121.71 285.25 118.31 291.31 114.01 296.70 C 113.54 296.58 112.60 296.33 112.13 296.21 C 108.01 289.58 104.14 282.78 100.47 275.89 Z" />
		<path fill="#040505" opacity="1.00" d=" M 300.44 275.88 C 307.48 271.29 316.76 271.89 324.32 274.82 C 325.91 275.13 327.72 276.77 326.36 278.37 C 322.30 284.51 318.49 290.86 313.98 296.69 C 311.64 296.86 311.01 294.39 309.95 292.83 C 306.84 287.14 303.32 281.68 300.44 275.88 Z" />
		<path fill="#040505" opacity="1.00" d=" M 84.42 285.46 C 88.63 290.10 90.25 296.46 93.41 301.80 C 94.07 303.92 97.10 306.75 94.47 308.51 C 87.33 308.86 80.15 308.62 73.00 308.63 C 71.63 308.88 70.14 307.37 70.83 306.00 C 72.08 297.54 77.41 290.17 84.42 285.46 Z" />
		<path fill="#040505" opacity="1.00" d=" M 131.50 307.18 C 135.19 299.84 138.16 292.02 142.85 285.26 C 149.50 289.47 154.64 296.21 156.27 303.98 C 156.56 305.36 157.48 308.40 155.10 308.39 C 148.72 308.66 142.33 308.41 135.95 308.52 C 134.30 308.77 132.83 308.07 131.50 307.18 Z" />
		<path fill="#040505" opacity="1.00" d=" M 270.63 307.18 C 271.55 298.26 277.04 290.38 284.39 285.45 C 287.04 287.84 288.05 291.39 289.71 294.45 C 291.65 298.69 294.16 302.68 295.68 307.10 C 295.38 307.45 294.77 308.15 294.46 308.50 C 286.89 308.77 279.24 308.83 271.67 308.47 C 271.41 308.14 270.89 307.50 270.63 307.18 Z" />
		<path fill="#040505" opacity="1.00" d=" M 337.87 293.93 C 339.36 290.95 340.59 287.77 342.84 285.25 C 349.45 289.51 354.60 296.21 356.23 303.98 C 356.51 305.36 357.44 308.25 355.13 308.39 C 348.77 308.66 342.40 308.41 336.04 308.52 C 334.36 308.73 332.82 308.14 331.47 307.20 C 333.40 302.68 335.73 298.35 337.87 293.93 Z" />
		<path fill="#040505" opacity="1.00" d=" M 110.53 306.73 C 116.63 304.70 123.68 308.80 125.09 315.03 C 126.95 321.57 121.75 328.84 114.99 329.32 C 108.88 330.05 102.87 325.04 102.42 318.93 C 101.78 313.59 105.41 308.25 110.53 306.73 Z" />
		<path fill="#040505" opacity="1.00" d=" M 310.49 306.73 C 316.58 304.70 323.59 308.77 325.03 314.97 C 326.93 321.49 321.79 328.77 315.05 329.31 C 308.94 330.10 302.86 325.11 302.39 318.98 C 301.73 313.64 305.35 308.25 310.49 306.73 Z" />
		<path fill="#040505" opacity="1.00" d=" M 71.18 328.98 C 70.90 327.76 71.61 326.10 73.09 326.50 C 80.53 326.68 87.94 327.46 95.37 327.84 C 95.56 328.98 96.02 330.24 95.22 331.29 C 92.38 336.38 89.37 341.37 86.54 346.46 C 85.61 347.78 85.05 349.88 83.11 349.91 C 76.19 345.25 72.00 337.20 71.18 328.98 Z" />
		<path fill="#040505" opacity="1.00" d=" M 134.97 327.77 C 141.70 327.55 148.40 326.73 155.13 326.64 C 155.46 326.95 156.12 327.56 156.44 327.87 C 155.90 336.12 152.06 344.22 145.50 349.37 C 144.58 350.21 142.76 350.21 142.32 348.84 C 138.52 342.53 134.94 336.09 131.28 329.70 C 132.24 328.56 133.34 327.50 134.97 327.77 Z" />
		<path fill="#040505" opacity="1.00" d=" M 271.18 329.48 C 270.95 328.33 271.20 326.02 272.93 326.49 C 279.84 326.65 286.73 327.36 293.63 327.73 C 295.01 327.51 295.62 328.63 295.87 329.80 C 293.89 334.06 291.21 337.96 288.98 342.09 C 287.23 344.91 286.03 348.23 283.33 350.32 C 276.62 345.40 272.06 337.78 271.18 329.48 Z" />
		<path fill="#040505" opacity="1.00" d=" M 348.96 326.87 C 351.40 327.10 354.73 325.44 356.40 327.89 C 355.85 336.14 352.01 344.25 345.44 349.39 C 344.53 350.18 342.79 350.25 342.34 348.91 C 338.66 342.68 334.90 336.46 331.57 330.03 L 331.73 328.93 C 332.07 328.70 332.73 328.22 333.06 327.98 C 338.34 327.39 343.67 327.44 348.96 326.87 Z" />
		<path fill="#040505" opacity="1.00" d=" M 100.49 359.44 C 104.71 352.44 108.16 344.92 113.10 338.40 C 117.97 342.87 120.65 349.19 124.63 354.41 C 125.46 356.04 128.21 358.46 125.94 360.03 C 120.47 362.60 114.14 363.81 108.15 362.62 C 105.42 362.11 102.45 361.59 100.49 359.44 Z" />
		<path fill="#040505" opacity="1.00" d=" M 311.41 340.38 C 311.95 338.92 314.23 338.40 314.93 340.02 C 318.79 345.52 322.41 351.20 326.13 356.81 C 326.90 357.68 327.22 359.52 325.87 360.04 C 320.42 362.61 314.10 363.80 308.13 362.62 C 305.40 362.09 302.39 361.62 300.45 359.41 C 304.08 353.06 307.65 346.66 311.41 340.38 Z" />
	</g>
	<g id="#ffffffff">
		<path fill="#ffffff" opacity="1.00" d=" M 72.68 7.93 C 78.06 6.95 83.53 6.52 89.01 6.55 C 200.67 6.56 312.34 6.55 424.00 6.56 C 441.54 6.43 459.03 12.25 473.00 22.83 C 490.19 35.66 501.95 55.57 504.66 76.87 C 505.73 84.52 505.30 92.26 505.39 99.96 C 505.39 207.31 505.38 314.66 505.39 422.01 C 505.99 445.18 496.04 468.35 478.78 483.81 C 464.00 497.31 444.04 505.10 423.99 504.81 C 315.66 504.81 207.32 504.81 98.99 504.81 C 91.32 504.70 83.60 505.19 76.00 504.03 C 55.48 501.15 36.29 489.93 23.63 473.54 C 14.75 462.14 8.95 448.32 7.21 433.97 C 6.36 427.68 6.58 421.33 6.56 415.01 C 6.55 306.66 6.56 198.31 6.55 89.95 C 6.40 79.59 7.89 69.13 11.64 59.43 C 21.13 33.15 45.19 12.88 72.68 7.93 M 346.52 122.41 C 341.92 125.71 341.35 131.79 341.66 136.98 C 328.88 147.04 315.57 156.47 301.42 164.52 C 296.78 167.15 292.23 170.26 287.00 171.58 C 271.15 171.71 255.64 167.84 240.18 164.81 C 227.34 162.56 214.66 159.48 201.84 157.15 C 186.70 154.07 171.42 151.80 156.11 149.81 C 144.81 148.99 133.44 147.83 122.11 149.05 C 106.46 150.64 91.31 156.41 78.41 165.39 C 64.53 174.98 53.09 187.94 44.73 202.56 C 35.94 218.15 30.08 235.99 31.33 254.06 C 31.98 264.63 35.89 274.68 41.07 283.82 C 41.73 285.40 43.47 287.00 42.42 288.80 C 36.74 303.03 35.25 318.93 38.49 333.93 C 42.47 352.90 53.89 370.18 69.79 381.25 C 84.81 391.79 103.69 396.73 121.93 394.71 C 137.05 393.23 151.61 386.94 163.25 377.21 C 176.02 366.65 185.07 351.79 188.90 335.69 C 205.40 336.58 222.12 337.26 238.48 334.53 C 243.83 358.37 260.81 379.36 283.41 388.86 C 298.62 395.43 315.98 396.94 332.07 392.97 C 349.68 388.69 365.66 377.97 376.24 363.25 C 386.11 349.66 391.35 332.77 390.89 315.97 C 390.61 298.32 383.88 280.90 372.40 267.51 C 371.91 266.71 370.34 265.53 371.58 264.63 C 383.36 251.11 393.08 235.97 401.87 220.38 C 410.25 220.74 418.65 220.57 427.04 220.30 C 441.56 219.05 456.78 217.98 469.82 210.81 C 475.67 207.80 480.31 201.82 480.36 195.05 C 480.39 186.00 480.42 176.94 480.35 167.89 C 480.30 161.65 476.17 156.19 470.79 153.36 C 451.58 141.75 430.22 133.47 407.95 130.27 C 398.74 128.79 389.36 129.41 380.09 129.64 C 375.75 127.06 371.73 123.84 366.89 122.19 C 360.46 119.83 352.49 117.90 346.52 122.41 Z" />
		<path fill="#ffffff" opacity="1.00" d=" M 104.56 264.84 C 116.42 262.84 128.96 264.68 139.49 270.58 C 153.84 278.24 164.14 292.85 166.72 308.90 C 168.93 321.28 166.37 334.38 159.99 345.19 C 152.70 357.70 140.09 366.97 125.96 370.17 C 112.06 373.53 96.88 370.81 84.91 363.02 C 73.56 355.81 65.23 344.10 61.98 331.06 C 58.62 318.25 60.34 304.22 66.59 292.55 C 74.09 278.11 88.55 267.62 104.56 264.84 M 100.47 275.89 C 104.14 282.78 108.01 289.58 112.13 296.21 C 112.60 296.33 113.54 296.58 114.01 296.70 C 118.31 291.31 121.71 285.25 125.67 279.60 C 126.63 278.43 127.64 276.13 125.64 275.40 C 117.82 271.89 107.92 271.08 100.47 275.89 M 84.42 285.46 C 77.41 290.17 72.08 297.54 70.83 306.00 C 70.14 307.37 71.63 308.88 73.00 308.63 C 80.15 308.62 87.33 308.86 94.47 308.51 C 97.10 306.75 94.07 303.92 93.41 301.80 C 90.25 296.46 88.63 290.10 84.42 285.46 M 131.50 307.18 C 132.83 308.07 134.30 308.77 135.95 308.52 C 142.33 308.41 148.72 308.66 155.10 308.39 C 157.48 308.40 156.56 305.36 156.27 303.98 C 154.64 296.21 149.50 289.47 142.85 285.26 C 138.16 292.02 135.19 299.84 131.50 307.18 M 110.53 306.73 C 105.41 308.25 101.78 313.59 102.42 318.93 C 102.87 325.04 108.88 330.05 114.99 329.32 C 121.75 328.84 126.95 321.57 125.09 315.03 C 123.68 308.80 116.63 304.70 110.53 306.73 M 71.18 328.98 C 72.00 337.20 76.19 345.25 83.11 349.91 C 85.05 349.88 85.61 347.78 86.54 346.46 C 89.37 341.37 92.38 336.38 95.22 331.29 C 96.02 330.24 95.56 328.98 95.37 327.84 C 87.94 327.46 80.53 326.68 73.09 326.50 C 71.61 326.10 70.90 327.76 71.18 328.98 M 134.97 327.77 C 133.34 327.50 132.24 328.56 131.28 329.70 C 134.94 336.09 138.52 342.53 142.32 348.84 C 142.76 350.21 144.58 350.21 145.50 349.37 C 152.06 344.22 155.90 336.12 156.44 327.87 C 156.12 327.56 155.46 326.95 155.13 326.64 C 148.40 326.73 141.70 327.55 134.97 327.77 M 100.49 359.44 C 102.45 361.59 105.42 362.11 108.15 362.62 C 114.14 363.81 120.47 362.60 125.94 360.03 C 128.21 358.46 125.46 356.04 124.63 354.41 C 120.65 349.19 117.97 342.87 113.10 338.40 C 108.16 344.92 104.71 352.44 100.49 359.44 Z" />
		<path fill="#ffffff" opacity="1.00" d=" M 304.53 264.84 C 316.10 262.89 328.34 264.58 338.71 270.18 C 352.55 277.31 362.82 290.84 366.12 306.04 C 369.72 321.32 365.94 338.02 356.42 350.45 C 348.38 361.07 336.25 368.48 323.13 370.75 C 309.30 373.30 294.56 369.94 283.10 361.83 C 272.89 354.75 265.40 343.95 262.17 331.98 C 258.53 318.94 260.14 304.56 266.51 292.62 C 274.01 278.15 288.48 267.62 304.53 264.84 M 300.44 275.88 C 303.32 281.68 306.84 287.14 309.95 292.83 C 311.01 294.39 311.64 296.86 313.98 296.69 C 318.49 290.86 322.30 284.51 326.36 278.37 C 327.72 276.77 325.91 275.13 324.32 274.82 C 316.76 271.89 307.48 271.29 300.44 275.88 M 270.63 307.18 C 270.89 307.50 271.41 308.14 271.67 308.47 C 279.24 308.83 286.89 308.77 294.46 308.50 C 294.77 308.15 295.38 307.45 295.68 307.10 C 294.16 302.68 291.65 298.69 289.71 294.45 C 288.05 291.39 287.04 287.84 284.39 285.45 C 277.04 290.38 271.55 298.26 270.63 307.18 M 337.87 293.93 C 335.73 298.35 333.40 302.68 331.47 307.20 C 332.82 308.14 334.36 308.73 336.04 308.52 C 342.40 308.41 348.77 308.66 355.13 308.39 C 357.44 308.25 356.51 305.36 356.23 303.98 C 354.60 296.21 349.45 289.51 342.84 285.25 C 340.59 287.77 339.36 290.95 337.87 293.93 M 310.49 306.73 C 305.35 308.25 301.73 313.64 302.39 318.98 C 302.86 325.11 308.94 330.10 315.05 329.31 C 321.79 328.77 326.93 321.49 325.03 314.97 C 323.59 308.77 316.58 304.70 310.49 306.73 M 271.18 329.48 C 272.06 337.78 276.62 345.40 283.33 350.32 C 286.03 348.23 287.23 344.91 288.98 342.09 C 291.21 337.96 293.89 334.06 295.87 329.80 C 295.62 328.63 295.01 327.51 293.63 327.73 C 286.73 327.36 279.84 326.65 272.93 326.49 C 271.20 326.02 270.95 328.33 271.18 329.48 M 348.96 326.87 C 343.67 327.44 338.34 327.39 333.06 327.98 C 332.73 328.22 332.07 328.70 331.73 328.93 L 331.57 330.03 C 334.90 336.46 338.66 342.68 342.34 348.91 C 342.79 350.25 344.53 350.18 345.44 349.39 C 352.01 344.25 355.85 336.14 356.40 327.89 C 354.73 325.44 351.40 327.10 348.96 326.87 M 311.41 340.38 C 307.65 346.66 304.08 353.06 300.45 359.41 C 302.39 361.62 305.40 362.09 308.13 362.62 C 314.10 363.80 320.42 362.61 325.87 360.04 C 327.22 359.52 326.90 357.68 326.13 356.81 C 322.41 351.20 318.79 345.52 314.93 340.02 C 314.23 338.40 311.95 338.92 311.41 340.38 Z" />
	</g>
	<g id="#6b482aff">
		<path fill="#6b482a" opacity="1.00" d=" M 356.24 134.14 C 362.39 135.69 368.38 138.47 372.79 143.13 C 374.82 145.04 376.85 147.72 379.94 147.58 C 383.44 147.66 385.44 143.64 388.96 143.76 C 416.18 143.51 442.66 153.15 465.60 167.34 C 465.70 176.83 465.63 186.33 465.63 195.83 C 462.57 198.48 458.92 200.35 455.01 201.37 C 438.44 206.00 421.05 206.15 403.99 205.69 C 397.08 205.49 390.03 204.43 383.84 201.21 C 380.82 199.65 378.26 197.35 375.22 195.84 C 371.67 194.23 367.02 195.70 365.57 199.46 C 363.83 202.17 365.15 205.61 367.32 207.64 C 372.69 212.66 379.56 215.66 386.45 217.98 C 378.90 231.43 370.05 244.12 360.13 255.92 C 344.47 244.34 324.42 238.66 305.03 241.01 C 290.64 242.62 276.81 248.53 265.56 257.61 C 252.56 268.00 243.19 282.77 239.22 298.93 C 237.43 305.86 236.86 313.04 236.70 320.18 C 221.53 322.53 206.14 321.70 190.87 321.32 C 191.45 305.80 187.46 290.11 179.19 276.93 C 169.84 261.64 154.93 249.88 137.87 244.39 C 119.37 238.19 98.53 239.46 80.95 247.95 C 69.20 253.39 59.31 262.15 51.37 272.28 C 44.96 259.94 44.17 245.31 48.08 232.07 C 56.66 201.46 80.62 174.25 111.79 165.73 C 122.56 162.53 133.90 163.33 144.99 163.57 C 178.82 166.15 211.83 174.37 245.08 180.67 C 255.31 182.85 265.61 184.85 276.05 185.67 C 281.51 186.10 287.23 187.27 292.53 185.22 C 299.67 182.61 306.28 178.76 312.75 174.80 C 324.36 167.99 335.35 160.18 346.11 152.11 C 348.68 156.34 350.84 163.30 356.96 162.80 C 360.61 163.10 363.98 159.59 363.75 155.98 C 363.92 152.55 361.46 149.86 360.06 146.95 C 357.80 143.03 356.90 138.56 356.24 134.14 M 393.36 156.62 C 386.93 158.13 386.54 168.07 392.70 170.29 C 396.93 171.01 401.31 170.88 405.57 170.40 C 411.66 168.73 412.11 159.02 406.10 156.87 C 401.96 155.86 397.55 156.06 393.36 156.62 Z" />
	</g>
</svg>
