<svg id="eqju15flir881" xmlns="http://www.w3.org/2000/svg" xmlns:xlink="http://www.w3.org/1999/xlink" viewBox="0 0 512 511" shape-rendering="geometricPrecision" text-rendering="geometricPrecision"><style><![CDATA[#eqju15flir886_tr {animation: eqju15flir886_tr__tr 2000ms linear infinite normal forwards}@keyframes eqju15flir886_tr__tr { 0% {transform: translate(313.641159px,317.802307px) rotate(360deg)} 100% {transform: translate(313.641159px,317.802307px) rotate(720deg)} }#eqju15flir8814_tr {animation: eqju15flir8814_tr__tr 2000ms linear infinite normal forwards}@keyframes eqju15flir8814_tr__tr { 0% {transform: translate(113.672100px,317.801834px) rotate(360deg)} 100% {transform: translate(113.672100px,317.801834px) rotate(720deg)} }]]></style><g id="eqju15flir882"><path id="eqju15flir883" d="M83.800000,0L427.380000,0C441.060000,1.020000,454.670000,4.400000,466.670000,11.200000C485.400000,21.510000,500.040000,38.950000,506.950000,59.190000C509.920000,67.180000,510.930000,75.670000,512,84.070000L512,426.300000C510.920000,441.520000,506.890000,456.690000,498.690000,469.670000C484.450000,493.130000,458.590000,508.830000,431.270000,511L79.800000,511C58.350000,508.810000,37.690000,498.830000,23.180000,482.790000C13.080000,471.800000,5.930000,458.170000,2.490000,443.650000C1.230000,438.280000,0.710000,432.770000,0,427.300000L0,84.610000C0.580000,79.730000,1.020000,74.830000,2.010000,70.010000C6.850000,46.090000,22.260000,24.580000,43.350000,12.300000C55.590000,4.930000,69.650000,1.240000,83.800000,0M72.680000,7.930000C45.190000,12.880000,21.130000,33.150000,11.640000,59.430000C7.890000,69.130000,6.400000,79.590000,6.550000,89.950000C6.560000,198.310000,6.550000,306.660000,6.560000,415.010000C6.580000,421.330000,6.360000,427.680000,7.210000,433.970000C8.950000,448.320000,14.750000,462.140000,23.630000,473.540000C36.290000,489.930000,55.480000,501.150000,76,504.030000C83.600000,505.190000,91.320000,504.700000,98.990000,504.810000C207.320000,504.810000,315.660000,504.810000,423.990000,504.810000C444.040000,505.100000,464,497.310000,478.780000,483.810000C496.040000,468.350000,505.990000,445.180000,505.390000,422.010000C505.380000,314.660000,505.390000,207.310000,505.390000,99.960000C505.300000,92.260000,505.730000,84.520000,504.660000,76.870000C501.950000,55.570000,490.190000,35.660000,473,22.830000C459.030000,12.250000,441.540000,6.430000,424,6.560000C312.340000,6.550000,200.670000,6.560000,89.010000,6.550000C83.530000,6.520000,78.060000,6.950000,72.680000,7.930000Z" fill="rgb(4,5,5)" stroke="none" stroke-width="1"/><path id="eqju15flir884" d="M346.520000,122.410000C352.490000,117.900000,360.460000,119.830000,366.890000,122.190000C371.730000,123.840000,375.750000,127.060000,380.090000,129.640000C389.360000,129.410000,398.740000,128.790000,407.950000,130.270000C430.220000,133.470000,451.580000,141.750000,470.790000,153.360000C476.170000,156.190000,480.300000,161.650000,480.350000,167.890000C480.420000,176.940000,480.390000,186,480.360000,195.050000C480.310000,201.820000,475.670000,207.800000,469.820000,210.810000C456.780000,217.980000,441.560000,219.050000,427.040000,220.300000C418.650000,220.570000,410.250000,220.740000,401.870000,220.380000C393.080000,235.970000,383.360000,251.110000,371.580000,264.630000C370.340000,265.530000,371.910000,266.710000,372.400000,267.510000C383.880000,280.900000,390.610000,298.320000,390.890000,315.970000C391.350000,332.770000,386.110000,349.660000,376.240000,363.250000C365.660000,377.970000,349.680000,388.690000,332.070000,392.970000C315.980000,396.940000,298.620000,395.430000,283.410000,388.860000C260.810000,379.360000,243.830000,358.370000,238.480000,334.530000C222.120000,337.260000,205.400000,336.580000,188.900000,335.690000C185.070000,351.790000,176.020000,366.650000,163.250000,377.210000C151.610000,386.940000,137.050000,393.230000,121.930000,394.710000C103.690000,396.730000,84.810000,391.790000,69.790000,381.250000C53.890000,370.180000,42.470000,352.900000,38.490000,333.930000C35.250000,318.930000,36.740000,303.030000,42.420000,288.800000C43.470000,287,41.730000,285.400000,41.070000,283.820000C35.890000,274.680000,31.980000,264.630000,31.330000,254.060000C30.080000,235.990000,35.940000,218.150000,44.730000,202.560000C53.090000,187.940000,64.530000,174.980000,78.410000,165.390000C91.310000,156.410000,106.460000,150.640000,122.110000,149.050000C133.440000,147.830000,144.810000,148.990000,156.110000,149.810000C171.420000,151.800000,186.700000,154.070000,201.840000,157.150000C214.660000,159.480000,227.340000,162.560000,240.180000,164.810000C255.640000,167.840000,271.150000,171.710000,287,171.580000C292.230000,170.260000,296.780000,167.150000,301.420000,164.520000C315.570000,156.470000,328.880000,147.040000,341.660000,136.980000C341.350000,131.790000,341.920000,125.710000,346.520000,122.410000M356.240000,134.140000C356.900000,138.560000,357.800000,143.030000,360.060000,146.950000C361.460000,149.860000,363.920000,152.550000,363.750000,155.980000C363.980000,159.590000,360.610000,163.100000,356.960000,162.800000C350.840000,163.300000,348.680000,156.340000,346.110000,152.110000C335.350000,160.180000,324.360000,167.990000,312.750000,174.800000C306.280000,178.760000,299.670000,182.610000,292.530000,185.220000C287.230000,187.270000,281.510000,186.100000,276.050000,185.670000C265.610000,184.850000,255.310000,182.850000,245.080000,180.670000C211.830000,174.370000,178.820000,166.150000,144.990000,163.570000C133.900000,163.330000,122.560000,162.530000,111.790000,165.730000C80.620000,174.250000,56.660000,201.460000,48.080000,232.070000C44.170000,245.310000,44.960000,259.940000,51.370000,272.280000C59.310000,262.150000,69.200000,253.390000,80.950000,247.950000C98.530000,239.460000,119.370000,238.190000,137.870000,244.390000C154.930000,249.880000,169.840000,261.640000,179.190000,276.930000C187.460000,290.110000,191.450000,305.800000,190.870000,321.320000C206.140000,321.700000,221.530000,322.530000,236.700000,320.180000C236.860000,313.040000,237.430000,305.860000,239.220000,298.930000C243.190000,282.770000,252.560000,268,265.560000,257.610000C276.810000,248.530000,290.640000,242.620000,305.030000,241.010000C324.420000,238.660000,344.470000,244.340000,360.130000,255.920000C370.050000,244.120000,378.900000,231.430000,386.450000,217.980000C379.560000,215.660000,372.690000,212.660000,367.320000,207.640000C365.150000,205.610000,363.830000,202.170000,365.570000,199.460000C367.020000,195.700000,371.670000,194.230000,375.220000,195.840000C378.260000,197.350000,380.820000,199.650000,383.840000,201.210000C390.030000,204.430000,397.080000,205.490000,403.990000,205.690000C421.050000,206.150000,438.440000,206,455.010000,201.370000C458.920000,200.350000,462.570000,198.480000,465.630000,195.830000C465.630000,186.330000,465.700000,176.830000,465.600000,167.340000C442.660000,153.150000,416.180000,143.510000,388.960000,143.760000C385.440000,143.640000,383.440000,147.660000,379.940000,147.580000C376.850000,147.720000,374.820000,145.040000,372.790000,143.130000C368.380000,138.470000,362.390000,135.690000,356.240000,134.140000M104.560000,264.840000C88.550000,267.620000,74.090000,278.110000,66.590000,292.550000C60.340000,304.220000,58.620000,318.250000,61.980000,331.060000C65.230000,344.100000,73.560000,355.810000,84.910000,363.020000C96.880000,370.810000,112.060000,373.530000,125.960000,370.170000C140.090000,366.970000,152.700000,357.700000,159.990000,345.190000C166.370000,334.380000,168.930000,321.280000,166.720000,308.900000C164.140000,292.850000,153.840000,278.240000,139.490000,270.580000C128.960000,264.680000,116.420000,262.840000,104.560000,264.840000M304.530000,264.840000C288.480000,267.620000,274.010000,278.150000,266.510000,292.620000C260.140000,304.560000,258.530000,318.940000,262.170000,331.980000C265.400000,343.950000,272.890000,354.750000,283.100000,361.830000C294.560000,369.940000,309.300000,373.300000,323.130000,370.750000C336.250000,368.480000,348.380000,361.070000,356.420000,350.450000C365.940000,338.020000,369.720000,321.320000,366.120000,306.040000C362.820000,290.840000,352.550000,277.310000,338.710000,270.180000C328.340000,264.580000,316.100000,262.890000,304.530000,264.840000Z" fill="rgb(4,5,5)" stroke="none" stroke-width="1"/><path id="eqju15flir885" d="M393.360000,156.620000C397.550000,156.060000,401.960000,155.860000,406.100000,156.870000C412.110000,159.020000,411.660000,168.730000,405.570000,170.400000C401.310000,170.880000,396.930000,171.010000,392.700000,170.290000C386.540000,168.070000,386.930000,158.130000,393.360000,156.620000Z" fill="rgb(4,5,5)" stroke="none" stroke-width="1"/><g id="eqju15flir886_tr" transform="translate(313.641159,317.802307) rotate(360)"><g id="eqju15flir886" transform="translate(-313.641159,-317.802307)"><path id="eqju15flir887" d="M300.440000,275.880000C307.480000,271.290000,316.760000,271.890000,324.320000,274.820000C325.910000,275.130000,327.720000,276.770000,326.360000,278.370000C322.300000,284.510000,318.490000,290.860000,313.980000,296.690000C311.640000,296.860000,311.010000,294.390000,309.950000,292.830000C306.840000,287.140000,303.320000,281.680000,300.440000,275.880000Z" fill="rgb(4,5,5)" stroke="none" stroke-width="1"/><path id="eqju15flir888" d="M270.630000,307.180000C271.550000,298.260000,277.040000,290.380000,284.390000,285.450000C287.040000,287.840000,288.050000,291.390000,289.710000,294.450000C291.650000,298.690000,294.160000,302.680000,295.680000,307.100000C295.380000,307.450000,294.770000,308.150000,294.460000,308.500000C286.890000,308.770000,279.240000,308.830000,271.670000,308.470000C271.410000,308.140000,270.890000,307.500000,270.630000,307.180000Z" fill="rgb(4,5,5)" stroke="none" stroke-width="1"/><path id="eqju15flir889" d="M337.870000,293.930000C339.360000,290.950000,340.590000,287.770000,342.840000,285.250000C349.450000,289.510000,354.600000,296.210000,356.230000,303.980000C356.510000,305.360000,357.440000,308.250000,355.130000,308.390000C348.770000,308.660000,342.400000,308.410000,336.040000,308.520000C334.360000,308.730000,332.820000,308.140000,331.470000,307.200000C333.400000,302.680000,335.730000,298.350000,337.870000,293.930000Z" fill="rgb(4,5,5)" stroke="none" stroke-width="1"/><path id="eqju15flir8810" d="M310.490000,306.730000C316.580000,304.700000,323.590000,308.770000,325.030000,314.970000C326.930000,321.490000,321.790000,328.770000,315.050000,329.310000C308.940000,330.100000,302.860000,325.110000,302.390000,318.980000C301.730000,313.640000,305.350000,308.250000,310.490000,306.730000Z" fill="rgb(4,5,5)" stroke="none" stroke-width="1"/><path id="eqju15flir8811" d="M271.180000,329.480000C270.950000,328.330000,271.200000,326.020000,272.930000,326.490000C279.840000,326.650000,286.730000,327.360000,293.630000,327.730000C295.010000,327.510000,295.620000,328.630000,295.870000,329.800000C293.890000,334.060000,291.210000,337.960000,288.980000,342.090000C287.230000,344.910000,286.030000,348.230000,283.330000,350.320000C276.620000,345.400000,272.060000,337.780000,271.180000,329.480000Z" fill="rgb(4,5,5)" stroke="none" stroke-width="1"/><path id="eqju15flir8812" d="M348.960000,326.870000C351.400000,327.100000,354.730000,325.440000,356.400000,327.890000C355.850000,336.140000,352.010000,344.250000,345.440000,349.390000C344.530000,350.180000,342.790000,350.250000,342.340000,348.910000C338.660000,342.680000,334.900000,336.460000,331.570000,330.030000L331.730000,328.930000C332.070000,328.700000,332.730000,328.220000,333.060000,327.980000C338.340000,327.390000,343.670000,327.440000,348.960000,326.870000Z" fill="rgb(4,5,5)" stroke="none" stroke-width="1"/><path id="eqju15flir8813" d="M311.410000,340.380000C311.950000,338.920000,314.230000,338.400000,314.930000,340.020000C318.790000,345.520000,322.410000,351.200000,326.130000,356.810000C326.900000,357.680000,327.220000,359.520000,325.870000,360.040000C320.420000,362.610000,314.100000,363.800000,308.130000,362.620000C305.400000,362.090000,302.390000,361.620000,300.450000,359.410000C304.080000,353.060000,307.650000,346.660000,311.410000,340.380000Z" fill="rgb(4,5,5)" stroke="none" stroke-width="1"/></g></g><g id="eqju15flir8814_tr" transform="translate(113.672100,317.801834) rotate(360)"><g id="eqju15flir8814" transform="translate(-113.672100,-317.801834)"><path id="eqju15flir8815" d="M100.470000,275.890000C107.920000,271.080000,117.820000,271.890000,125.640000,275.400000C127.640000,276.130000,126.630000,278.430000,125.670000,279.600000C121.710000,285.250000,118.310000,291.310000,114.010000,296.700000C113.540000,296.580000,112.600000,296.330000,112.130000,296.210000C108.010000,289.580000,104.140000,282.780000,100.470000,275.890000Z" fill="rgb(4,5,5)" stroke="none" stroke-width="1"/><path id="eqju15flir8816" d="M84.420000,285.460000C88.630000,290.100000,90.250000,296.460000,93.410000,301.800000C94.070000,303.920000,97.100000,306.750000,94.470000,308.510000C87.330000,308.860000,80.150000,308.620000,73,308.630000C71.630000,308.880000,70.140000,307.370000,70.830000,306C72.080000,297.540000,77.410000,290.170000,84.420000,285.460000Z" fill="rgb(4,5,5)" stroke="none" stroke-width="1"/><path id="eqju15flir8817" d="M131.500000,307.180000C135.190000,299.840000,138.160000,292.020000,142.850000,285.260000C149.500000,289.470000,154.640000,296.210000,156.270000,303.980000C156.560000,305.360000,157.480000,308.400000,155.100000,308.390000C148.720000,308.660000,142.330000,308.410000,135.950000,308.520000C134.300000,308.770000,132.830000,308.070000,131.500000,307.180000Z" fill="rgb(4,5,5)" stroke="none" stroke-width="1"/><path id="eqju15flir8818" d="M110.530000,306.730000C116.630000,304.700000,123.680000,308.800000,125.090000,315.030000C126.950000,321.570000,121.750000,328.840000,114.990000,329.320000C108.880000,330.050000,102.870000,325.040000,102.420000,318.930000C101.780000,313.590000,105.410000,308.250000,110.530000,306.730000Z" fill="rgb(4,5,5)" stroke="none" stroke-width="1"/><path id="eqju15flir8819" d="M71.180000,328.980000C70.900000,327.760000,71.610000,326.100000,73.090000,326.500000C80.530000,326.680000,87.940000,327.460000,95.370000,327.840000C95.560000,328.980000,96.020000,330.240000,95.220000,331.290000C92.380000,336.380000,89.370000,341.370000,86.540000,346.460000C85.610000,347.780000,85.050000,349.880000,83.110000,349.910000C76.190000,345.250000,72,337.200000,71.180000,328.980000Z" fill="rgb(4,5,5)" stroke="none" stroke-width="1"/><path id="eqju15flir8820" d="M134.970000,327.770000C141.700000,327.550000,148.400000,326.730000,155.130000,326.640000C155.460000,326.950000,156.120000,327.560000,156.440000,327.870000C155.900000,336.120000,152.060000,344.220000,145.500000,349.370000C144.580000,350.210000,142.760000,350.210000,142.320000,348.840000C138.520000,342.530000,134.940000,336.090000,131.280000,329.700000C132.240000,328.560000,133.340000,327.500000,134.970000,327.770000Z" fill="rgb(4,5,5)" stroke="none" stroke-width="1"/><path id="eqju15flir8821" d="M100.490000,359.440000C104.710000,352.440000,108.160000,344.920000,113.100000,338.400000C117.970000,342.870000,120.650000,349.190000,124.630000,354.410000C125.460000,356.040000,128.210000,358.460000,125.940000,360.030000C120.470000,362.600000,114.140000,363.810000,108.150000,362.620000C105.420000,362.110000,102.450000,361.590000,100.490000,359.440000Z" fill="rgb(4,5,5)" stroke="none" stroke-width="1"/></g></g></g><g id="eqju15flir8822"><path id="eqju15flir8823" d="M72.680000,7.930000C78.060000,6.950000,83.530000,6.520000,89.010000,6.550000C200.670000,6.560000,312.340000,6.550000,424,6.560000C441.540000,6.430000,459.030000,12.250000,473,22.830000C490.190000,35.660000,501.950000,55.570000,504.660000,76.870000C505.730000,84.520000,505.300000,92.260000,505.390000,99.960000C505.390000,207.310000,505.380000,314.660000,505.390000,422.010000C505.990000,445.180000,496.040000,468.350000,478.780000,483.810000C464,497.310000,444.040000,505.100000,423.990000,504.810000C315.660000,504.810000,207.320000,504.810000,98.990000,504.810000C91.320000,504.700000,83.600000,505.190000,76,504.030000C55.480000,501.150000,36.290000,489.930000,23.630000,473.540000C14.750000,462.140000,8.950000,448.320000,7.210000,433.970000C6.360000,427.680000,6.580000,421.330000,6.560000,415.010000C6.550000,306.660000,6.560000,198.310000,6.550000,89.950000C6.400000,79.590000,7.890000,69.130000,11.640000,59.430000C21.130000,33.150000,45.190000,12.880000,72.680000,7.930000M346.520000,122.410000C341.920000,125.710000,341.350000,131.790000,341.660000,136.980000C328.880000,147.040000,315.570000,156.470000,301.420000,164.520000C296.780000,167.150000,292.230000,170.260000,287,171.580000C271.150000,171.710000,255.640000,167.840000,240.180000,164.810000C227.340000,162.560000,214.660000,159.480000,201.840000,157.150000C186.700000,154.070000,171.420000,151.800000,156.110000,149.810000C144.810000,148.990000,133.440000,147.830000,122.110000,149.050000C106.460000,150.640000,91.310000,156.410000,78.410000,165.390000C64.530000,174.980000,53.090000,187.940000,44.730000,202.560000C35.940000,218.150000,30.080000,235.990000,31.330000,254.060000C31.980000,264.630000,35.890000,274.680000,41.070000,283.820000C41.730000,285.400000,43.470000,287,42.420000,288.800000C36.740000,303.030000,35.250000,318.930000,38.490000,333.930000C42.470000,352.900000,53.890000,370.180000,69.790000,381.250000C84.810000,391.790000,103.690000,396.730000,121.930000,394.710000C137.050000,393.230000,151.610000,386.940000,163.250000,377.210000C176.020000,366.650000,185.070000,351.790000,188.900000,335.690000C205.400000,336.580000,222.120000,337.260000,238.480000,334.530000C243.830000,358.370000,260.810000,379.360000,283.410000,388.860000C298.620000,395.430000,315.980000,396.940000,332.070000,392.970000C349.680000,388.690000,365.660000,377.970000,376.240000,363.250000C386.110000,349.660000,391.350000,332.770000,390.890000,315.970000C390.610000,298.320000,383.880000,280.900000,372.400000,267.510000C371.910000,266.710000,370.340000,265.530000,371.580000,264.630000C383.360000,251.110000,393.080000,235.970000,401.870000,220.380000C410.250000,220.740000,418.650000,220.570000,427.040000,220.300000C441.560000,219.050000,456.780000,217.980000,469.820000,210.810000C475.670000,207.800000,480.310000,201.820000,480.360000,195.050000C480.390000,186,480.420000,176.940000,480.350000,167.890000C480.300000,161.650000,476.170000,156.190000,470.790000,153.360000C451.580000,141.750000,430.220000,133.470000,407.950000,130.270000C398.740000,128.790000,389.360000,129.410000,380.090000,129.640000C375.750000,127.060000,371.730000,123.840000,366.890000,122.190000C360.460000,119.830000,352.490000,117.900000,346.520000,122.410000Z" fill="rgb(255,255,255)" stroke="none" stroke-width="1"/></g><g id="eqju15flir8824"><path id="eqju15flir8825" d="M356.240000,134.140000C362.390000,135.690000,368.380000,138.470000,372.790000,143.130000C374.820000,145.040000,376.850000,147.720000,379.940000,147.580000C383.440000,147.660000,385.440000,143.640000,388.960000,143.760000C416.180000,143.510000,442.660000,153.150000,465.600000,167.340000C465.700000,176.830000,465.630000,186.330000,465.630000,195.830000C462.570000,198.480000,458.920000,200.350000,455.010000,201.370000C438.440000,206,421.050000,206.150000,403.990000,205.690000C397.080000,205.490000,390.030000,204.430000,383.840000,201.210000C380.820000,199.650000,378.260000,197.350000,375.220000,195.840000C371.670000,194.230000,367.020000,195.700000,365.570000,199.460000C363.830000,202.170000,365.150000,205.610000,367.320000,207.640000C372.690000,212.660000,379.560000,215.660000,386.450000,217.980000C378.900000,231.430000,370.050000,244.120000,360.130000,255.920000C344.470000,244.340000,324.420000,238.660000,305.030000,241.010000C290.640000,242.620000,276.810000,248.530000,265.560000,257.610000C252.560000,268,243.190000,282.770000,239.220000,298.930000C237.430000,305.860000,236.860000,313.040000,236.700000,320.180000C221.530000,322.530000,206.140000,321.700000,190.870000,321.320000C191.450000,305.800000,187.460000,290.110000,179.190000,276.930000C169.840000,261.640000,154.930000,249.880000,137.870000,244.390000C119.370000,238.190000,98.530000,239.460000,80.950000,247.950000C69.200000,253.390000,59.310000,262.150000,51.370000,272.280000C44.960000,259.940000,44.170000,245.310000,48.080000,232.070000C56.660000,201.460000,80.620000,174.250000,111.790000,165.730000C122.560000,162.530000,133.900000,163.330000,144.990000,163.570000C178.820000,166.150000,211.830000,174.370000,245.080000,180.670000C255.310000,182.850000,265.610000,184.850000,276.050000,185.670000C281.510000,186.100000,287.230000,187.270000,292.530000,185.220000C299.670000,182.610000,306.280000,178.760000,312.750000,174.800000C324.360000,167.990000,335.350000,160.180000,346.110000,152.110000C348.680000,156.340000,350.840000,163.300000,356.960000,162.800000C360.610000,163.100000,363.980000,159.590000,363.750000,155.980000C363.920000,152.550000,361.460000,149.860000,360.060000,146.950000C357.800000,143.030000,356.900000,138.560000,356.240000,134.140000M393.360000,156.620000C386.930000,158.130000,386.540000,168.070000,392.700000,170.290000C396.930000,171.010000,401.310000,170.880000,405.570000,170.400000C411.660000,168.730000,412.110000,159.020000,406.100000,156.870000C401.960000,155.860000,397.550000,156.060000,393.360000,156.620000Z" fill="rgb(107,72,42)" stroke="none" stroke-width="1"/></g></svg>