<?xml version="1.0" encoding="iso-8859-1"?>
<!-- Generator: Adobe Illustrator 19.0.0, SVG Export Plug-In . SVG Version: 6.00 Build 0)  -->
<svg version="1.1" id="Layer_1" xmlns="http://www.w3.org/2000/svg" xmlns:xlink="http://www.w3.org/1999/xlink" x="0px" y="0px"
	 viewBox="0 0 512 512" style="enable-background:new 0 0 512 512; fill: white;" xml:space="preserve">
<g>
	<g>
		<g>
			<path d="M444.874,414.725L97.293,67.143c-4.167-4.165-10.919-4.165-15.086,0L67.126,82.225c-4.167,4.165-4.167,10.919,0,15.085
				l92.82,92.82L87.021,303.58c-2.104,3.281-2.25,7.458-0.375,10.885C88.5,317.882,92.104,320,96,320h117.333v181.351
				c0,4.729,3.125,8.896,7.667,10.24c0.979,0.292,2,0.409,3,0.409c3.563,0,6.979-1.774,8.979-4.878l95.46-148.499l86.268,86.268
				c4.167,4.165,10.919,4.165,15.086,0l15.081-15.082C449.04,425.644,449.04,418.89,444.874,414.725z"/>
			<path d="M354.5,294.174c2,2.01,4.729,3.125,7.542,3.125c0.375,0,0.75-0.021,1.146-0.063c3.208-0.344,6.083-2.125,7.833-4.833
				l53.958-83.948c2.104-3.281,2.25-7.458,0.375-10.885c-1.854-3.417-5.458-5.552-9.354-5.552H298.667V10.685
				c0-4.729-3.125-8.896-7.667-10.24c-4.458-1.365-9.417,0.49-11.979,4.469l-79,122.906c-2.708,4.229-2.104,9.76,1.438,13.312
				L354.5,294.174z"/>
		</g>
	</g>
</g>
<g>
</g>
<g>
</g>
<g>
</g>
<g>
</g>
<g>
</g>
<g>
</g>
<g>
</g>
<g>
</g>
<g>
</g>
<g>
</g>
<g>
</g>
<g>
</g>
<g>
</g>
<g>
</g>
<g>
</g>
</svg>
